<svg width="17" height="20" viewBox="0 0 17 20" fill="none" xmlns="http://www.w3.org/2000/svg">
    <path d="M0.620117 2.42514V18.3014L16.517 19.916V0.647461L0.620117 2.42514ZM12.2022 16.12C11.9706 16.3516 11.6679 16.4681 11.3638 16.4681C11.0611 16.4681 10.757 16.3529 10.5255 16.1213C9.96653 15.5624 9.64567 14.7887 9.64567 13.9969V7.6301C9.64567 6.97026 9.10874 6.43204 8.44761 6.43204C7.78648 6.43204 7.24955 6.96897 7.24955 7.6301V12.1972C7.24955 12.8519 6.71909 13.3823 6.06443 13.3823C5.40977 13.3823 4.87931 12.8519 4.87931 12.1972V7.17468C4.73958 7.2329 4.58562 7.26525 4.42389 7.26525C3.76923 7.26525 3.23877 6.73479 3.23877 6.08013C3.23877 5.6066 3.44448 5.17317 3.80287 4.89113C4.39413 4.42536 5.35413 4.47711 6.10324 4.94288C6.73074 4.39431 7.55101 4.0618 8.44761 4.0618C10.4155 4.0618 12.0159 5.66223 12.0159 7.6301V13.9969C12.0159 14.1638 12.0832 14.3268 12.2009 14.4445C12.6654 14.9064 12.6654 15.6568 12.2022 16.12Z" fill="url(#paint0_radial_602_1460)"/>
    <defs>
        <radialGradient id="paint0_radial_602_1460" cx="0" cy="0" r="1" gradientUnits="userSpaceOnUse" gradientTransform="translate(-0.195625 1.67225) scale(22.9723 22.9723)">
            <stop stop-color="#DCDE22"/>
            <stop offset="0.2037" stop-color="#B4CC36"/>
            <stop offset="0.3847" stop-color="#80B241"/>
            <stop offset="0.6434" stop-color="#2B9046"/>
            <stop offset="0.8052" stop-color="#297D59"/>
            <stop offset="1" stop-color="#2D6D5A"/>
        </radialGradient>
    </defs>
</svg>