<svg width="93" height="48" viewBox="0 0 93 48" fill="none" xmlns="http://www.w3.org/2000/svg">
    <path d="M28.4838 10.9572C32.3523 10.9572 34.2865 12.9536 34.2865 16.9475V18.9089C34.2865 22.9029 32.3536 24.9173 28.4851 24.9173C24.5999 24.9173 22.6553 22.9029 22.6553 18.9089V16.9475C22.6553 12.9536 24.5986 10.9572 28.4838 10.9572ZM27.6519 8.86126H24.9117V5.64746H27.6519V8.86126ZM28.4838 13.616C26.7825 13.616 25.9325 14.6006 25.9325 16.571V19.2569C25.9325 21.2455 26.7825 22.2392 28.4838 22.2392C30.1671 22.2392 31.0093 21.2455 31.0093 19.2569V16.571C31.0093 14.6006 30.1684 13.616 28.4838 13.616ZM32.0573 8.86126H29.3171V5.64746H32.0573V8.86126ZM67.7585 8.86126H65.0182V5.64746H67.7585V8.86126Z" fill="#202021"/>
    <path d="M36.2471 22.2391V22.2287C36.9535 22.2287 37.6211 22.2391 38.9705 22.2391C38.0209 21.2002 37.6974 20.3139 37.6974 18.72C37.6974 16.8038 38.2615 15.2642 39.3897 14.0998C40.4286 13.0428 41.7535 12.5149 43.3656 12.5149C44.5468 12.5149 45.6038 12.8202 46.5354 13.4283C47.2521 13.9122 47.8421 14.5565 48.3079 15.3625L46.0787 16.6253C45.6659 15.9991 45.2597 15.5553 44.856 15.2953C44.4536 15.0352 43.9646 14.9058 43.3927 14.9058C42.5867 14.9058 41.9152 15.2642 41.3783 15.9797C40.8763 16.6602 40.6266 17.5103 40.6266 18.5311C40.6266 20.0358 41.0924 21.1368 42.0226 21.8354C42.632 22.2831 43.3746 22.2378 44.2518 22.2378H48.872C48.872 23.7166 47.6726 24.9147 46.1951 24.9147H38.9239C37.4451 24.916 36.2471 23.7179 36.2471 22.2391Z" fill="#202021"/>
    <path d="M77.9588 24.916C79.0675 24.916 80.175 24.916 81.2851 24.916C82.359 24.916 83.24 24.916 84.2958 24.916C85.3049 24.916 86.503 24.3869 87.3207 23.7956C88.6921 22.8058 89.4348 21.045 89.273 19.3617C89.2549 19.1832 89.229 19.0085 89.1915 18.8339C89.0195 18.0007 88.6391 17.2166 88.1112 16.5516C87.846 16.2178 87.5458 15.9151 87.212 15.6485C86.9558 15.4428 86.6984 15.3031 86.415 15.1828C85.5572 14.8192 84.6296 14.6523 83.698 14.6523H81.1881L86.2067 8.16908H82.3538L75.212 17.3279H82.4198C82.9321 17.3279 83.3655 17.315 83.8844 17.3719C84.3967 17.4275 84.8935 17.65 85.2713 18.0033C85.7862 18.491 86.0049 19.2362 85.9609 19.9453C85.9208 20.6323 85.6297 21.3257 85.0837 21.741C84.4213 22.2405 83.5221 22.2599 82.6915 22.256C80.0625 22.2469 77.4296 22.2379 74.7967 22.2379H70.2568C70.8661 21.7191 71.3617 21.0049 71.7498 20.0889C72.1341 19.1767 72.3281 18.2711 72.3281 17.3758C72.3281 15.6395 71.8882 14.2344 71.0097 13.1606C69.9695 11.89 68.4299 11.2522 66.3883 11.2522C64.599 11.2522 63.1848 11.7451 62.1446 12.7297C61.0177 13.823 60.4523 15.3717 60.4523 17.3758C60.4523 18.2724 60.6464 19.178 61.0294 20.0889C61.4162 21.0036 61.904 21.7191 62.494 22.2379H56.6382C55.9577 22.2379 55.4104 22.0063 54.999 21.5418C54.5332 21.0204 54.3029 20.3049 54.3029 19.3902L54.3689 5.64746H51.0244V19.0435C51.0244 20.8147 51.4371 22.1939 52.2613 23.1785C53.2109 24.3248 54.6496 24.916 56.5852 24.916H64.1875C65.0841 24.916 65.8164 24.7556 66.3883 24.4671C66.9446 24.7543 67.6795 24.916 68.5942 24.916H77.9588ZM68.3096 19.9155C67.8503 20.7306 67.2099 21.4085 66.3857 21.9455C64.6494 20.8147 63.7813 19.2569 63.7813 17.271C63.7813 16.4843 63.9443 15.7934 64.2652 15.2009C64.7309 14.3418 65.4361 13.9148 66.3857 13.9148C67.2293 13.9148 67.8813 14.237 68.3471 14.88C68.7779 15.5075 68.994 16.3045 68.994 17.2723C68.994 18.2193 68.7663 19.1004 68.3096 19.9155Z" fill="#202021"/>
    <path d="M3.62012 7.42514V23.3014L19.517 24.916V5.64746L3.62012 7.42514ZM15.2022 21.12C14.9706 21.3516 14.6679 21.4681 14.3638 21.4681C14.0611 21.4681 13.757 21.3529 13.5255 21.1213C12.9665 20.5624 12.6457 19.7887 12.6457 18.9969V12.6301C12.6457 11.9703 12.1087 11.432 11.4476 11.432C10.7865 11.432 10.2496 11.969 10.2496 12.6301V17.1972C10.2496 17.8519 9.71909 18.3823 9.06443 18.3823C8.40977 18.3823 7.87931 17.8519 7.87931 17.1972V12.1747C7.73958 12.2329 7.58562 12.2653 7.42389 12.2653C6.76923 12.2653 6.23877 11.7348 6.23877 11.0801C6.23877 10.6066 6.44448 10.1732 6.80287 9.89113C7.39413 9.42536 8.35413 9.47711 9.10324 9.94288C9.73074 9.39431 10.551 9.0618 11.4476 9.0618C13.4155 9.0618 15.0159 10.6622 15.0159 12.6301V18.9969C15.0159 19.1638 15.0832 19.3268 15.2009 19.4445C15.6654 19.9064 15.6654 20.6568 15.2022 21.12Z" fill="url(#paint0_radial_602_1455)"/>
    <path d="M6.35949 32.7876V34.8408C6.35949 35.0517 6.41253 35.2173 6.51733 35.3402C6.61436 35.4541 6.74504 35.511 6.90935 35.511H7.07366V36.1359H6.89641C6.42935 36.1359 6.0852 35.991 5.86655 35.6999C5.74881 35.784 5.60261 35.8539 5.42795 35.9082C5.25329 35.9626 5.08768 35.9897 4.93242 35.9897C4.49382 35.9897 4.16391 35.8616 3.94008 35.6042C3.73307 35.3635 3.63086 35.0233 3.63086 34.5808V34.335C3.63086 33.8381 3.768 33.4668 4.04099 33.2236C4.26353 33.0256 4.5611 32.9273 4.93242 32.9273C5.16789 32.9273 5.38784 32.9713 5.58967 33.0593V32.7876H6.35949ZM4.81727 32.3839H4.17296V31.6257H4.81727V32.3839ZM4.99453 33.5522C4.59862 33.5522 4.40067 33.7838 4.40067 34.247V34.6636C4.40067 35.1306 4.59862 35.3648 4.99453 35.3648C5.22223 35.3648 5.43054 35.2833 5.61943 35.119C5.59873 35.0142 5.58838 34.868 5.58838 34.683V33.723C5.44994 33.6091 5.25199 33.5522 4.99453 33.5522ZM5.85361 32.3839H5.2093V31.6257H5.85361V32.3839Z" fill="#202021"/>
    <path d="M9.30913 32.9273C10.2187 32.9273 10.6741 33.3969 10.6741 34.3362V34.7283C10.6741 35.6676 10.2187 36.1372 9.30913 36.1372H6.95312V35.5123H8.14083C8.00628 35.3312 7.939 35.0698 7.939 34.7283V34.3362C7.939 33.3969 8.39571 32.9273 9.30913 32.9273ZM9.11377 32.3839H8.46946V31.6257H9.11377V32.3839ZM9.30913 33.5522C8.90935 33.5522 8.70881 33.7838 8.70881 34.247V34.8098C8.70881 35.2768 8.90935 35.511 9.30913 35.511C9.70504 35.511 9.90299 35.2768 9.90299 34.8098V34.247C9.90299 33.7838 9.70504 33.5522 9.30913 33.5522ZM10.1501 32.3839H9.50579V31.6257H10.1501V32.3839Z" fill="#202021"/>
    <path d="M12.3551 31.6257V34.8421C12.3551 35.0569 12.4094 35.2251 12.5194 35.348C12.6164 35.458 12.7445 35.5123 12.905 35.5123H13.0693V36.1372H12.892C12.4366 36.1372 12.0976 36.0027 11.8751 35.7323C11.681 35.5007 11.584 35.1759 11.584 34.7593V31.6257H12.3551Z" fill="#202021"/>
    <path d="M12.9492 35.511H13.9286V31.6257H14.6997V33.8562C14.9145 33.5406 15.2004 33.2999 15.5588 33.1356C15.8616 32.9972 16.1863 32.9273 16.5318 32.9273C17.1385 32.9273 17.5953 33.1356 17.9032 33.5522C18.1438 33.8769 18.2629 34.2858 18.2629 34.7774C18.2629 35.0595 18.2189 35.2872 18.1296 35.4593C18.1801 35.4929 18.2512 35.5097 18.3444 35.5097H18.8244V36.1346H18.325C18.0429 36.1346 17.8618 36.057 17.7816 35.9005C17.5707 36.0557 17.2886 36.1346 16.9354 36.1346H12.9492V35.511ZM16.4619 33.5522C16.0065 33.5522 15.6002 33.7903 15.2418 34.2664C14.9637 34.6325 14.7825 35.0478 14.6984 35.511H16.9289C17.1178 35.511 17.2653 35.4399 17.3714 35.2962C17.4555 35.1746 17.4982 35.0181 17.4982 34.8292C17.4982 34.4294 17.4038 34.115 17.2136 33.8873C17.0325 33.6635 16.7828 33.5522 16.4619 33.5522Z" fill="#202021"/>
    <path d="M20.4546 31.6257V34.7593C20.4546 35.2523 20.3214 35.6145 20.0561 35.8461C19.8323 36.0402 19.5218 36.1372 19.1207 36.1372H18.7041V35.5123H19.1207C19.3096 35.5123 19.4558 35.4424 19.5567 35.304C19.6408 35.1863 19.6835 35.0323 19.6835 34.8434V31.627H20.4546V31.6257Z" fill="#202021"/>
    <path d="M22.1852 31.6257V36.1372H21.4141V31.6257H22.1852Z" fill="#202021"/>
    <path d="M25.7298 32.8574C26.6394 32.8574 27.0948 33.3271 27.0948 34.2664V34.7283C27.0948 35.6676 26.6394 36.1372 25.7298 36.1372C24.8151 36.1372 24.3584 35.6676 24.3584 34.7283V34.2664C24.3584 33.3271 24.8151 32.8574 25.7298 32.8574ZM25.5332 32.3839H24.8889V31.6257H25.5332V32.3839ZM25.7298 33.5522C25.33 33.5522 25.1295 33.7838 25.1295 34.247V34.8783C25.1295 35.3454 25.33 35.5796 25.7298 35.5796C26.1257 35.5796 26.3237 35.3454 26.3237 34.8783V34.247C26.3237 33.7838 26.1257 33.5522 25.7298 33.5522ZM26.5695 32.3839H25.9252V31.6257H26.5695V32.3839Z" fill="#202021"/>
    <path d="M27.9042 36.401L27.8913 36.4075C27.8783 36.4153 27.868 36.4204 27.8602 36.4204C27.8473 36.4204 27.8408 36.414 27.8408 36.401V35.8382C27.9883 35.7373 28.2134 35.661 28.5175 35.6105C28.2937 35.366 28.1824 35.0568 28.1824 34.6816C28.1824 34.2313 28.3144 33.8691 28.5809 33.5948C28.8254 33.3464 29.1372 33.2222 29.5163 33.2222C29.7945 33.2222 30.0429 33.2933 30.2615 33.4369C30.4297 33.5508 30.5694 33.7022 30.6781 33.8924L30.1541 34.1886C30.0571 34.0411 29.9614 33.9376 29.8669 33.8755C29.7725 33.8147 29.6573 33.7837 29.5228 33.7837C29.3326 33.7837 29.1747 33.8678 29.0492 34.036C28.9315 34.1964 28.872 34.3956 28.872 34.6363C28.872 34.9908 28.982 35.2496 29.2006 35.4139C29.3442 35.5187 29.5189 35.5717 29.7246 35.5717H30.8114V36.1345H29.2821C29.2317 36.1345 29.1217 36.1358 28.9535 36.15C28.7853 36.1643 28.6559 36.1785 28.5679 36.1914C28.3144 36.2354 28.0931 36.304 27.9042 36.401Z" fill="#202021"/>
    <path d="M32.3766 31.6257V34.8421C32.3766 35.0569 32.4309 35.2251 32.5409 35.348C32.6379 35.458 32.766 35.5123 32.9264 35.5123H33.0908V36.1372H32.9135C32.4581 36.1372 32.1191 36.0027 31.8966 35.7323C31.7025 35.5007 31.6055 35.1759 31.6055 34.7593V31.6257H32.3766Z" fill="#202021"/>
    <path d="M35.2193 32.9273C35.6993 32.9273 36.0616 33.0774 36.3061 33.3762C36.5118 33.6285 36.6153 33.9597 36.6153 34.3686C36.6153 34.5795 36.5701 34.7917 36.4795 35.0064C36.3889 35.2212 36.2725 35.3894 36.1289 35.5123H37.1963V36.1372H35.7368C35.5221 36.1372 35.3487 36.1036 35.2193 36.0363C35.0848 36.1036 34.9114 36.1372 34.7018 36.1372H32.9707V35.5123H34.3033C34.1636 35.3907 34.0497 35.2212 33.9592 35.0064C33.8686 34.7917 33.8233 34.5795 33.8233 34.3686C33.8233 33.8964 33.9566 33.5328 34.2218 33.2753C34.4663 33.0424 34.7988 32.9273 35.2193 32.9273ZM35.2193 33.5522C34.9955 33.5522 34.8299 33.6531 34.7199 33.855C34.6436 33.9934 34.6061 34.1564 34.6061 34.3414C34.6061 34.8085 34.8105 35.1759 35.2193 35.4411C35.4134 35.3144 35.5635 35.1565 35.6709 34.9637C35.7783 34.7723 35.8326 34.5652 35.8326 34.3414C35.8326 34.1137 35.7821 33.9261 35.6812 33.7786C35.5712 33.6285 35.4173 33.5522 35.2193 33.5522ZM35.6113 32.3839H34.8402V31.6257H35.6113V32.3839Z" fill="#202021"/>
    <path d="M41.271 36.1359H40.6577C40.3757 36.1359 40.1945 36.0583 40.1143 35.9017C39.9034 36.057 39.6175 36.1359 39.2552 36.1359H37.0752V35.511H39.2552C39.4493 35.511 39.5968 35.4411 39.6977 35.3027C39.7779 35.1889 39.8181 35.0349 39.8181 34.8421V34.2923C39.8181 34.0684 39.765 33.8989 39.6602 33.7799C39.5593 33.6751 39.4247 33.6221 39.2552 33.6221H37.7958V33.3762C37.7958 33.2456 37.8165 33.1317 37.8592 33.0347C37.9006 32.9376 37.9834 32.8134 38.1051 32.6621L38.9577 31.6257H39.8168L38.6989 32.9972H39.2552C39.7107 32.9972 40.0509 33.124 40.2786 33.3762C40.4844 33.6078 40.5879 33.9403 40.5879 34.3751V34.7606C40.5879 35.0427 40.5348 35.2743 40.43 35.4554C40.4714 35.4929 40.5478 35.5123 40.6577 35.5123H41.271V36.1359Z" fill="#202021"/>
    <path d="M42.9019 31.6257V34.7593C42.9019 35.2523 42.7686 35.6145 42.5034 35.8461C42.2796 36.0402 41.969 36.1372 41.568 36.1372H41.1514V35.5123H41.568C41.7569 35.5123 41.9031 35.4424 42.004 35.304C42.0881 35.1863 42.1308 35.0323 42.1308 34.8434V31.627H42.9019V31.6257Z" fill="#202021"/>
    <path d="M48.0003 32.9272C48.241 32.9272 48.4726 32.9906 48.6951 33.1161C48.9137 33.2378 49.0768 33.3982 49.1816 33.5961L48.5877 33.9183C48.4273 33.6738 48.2293 33.5522 47.9939 33.5522C47.7868 33.5522 47.6187 33.6401 47.488 33.8174C47.3664 33.9856 47.303 34.2068 47.2991 34.4811C47.303 34.8809 47.4298 35.1681 47.6782 35.3402C47.8386 35.454 48.034 35.511 48.2656 35.511H48.7145C49.0509 35.511 49.2204 35.6817 49.2204 36.0233C49.2204 36.2847 49.1505 36.5408 49.0121 36.7944C48.8516 37.0803 48.6239 37.3106 48.3302 37.4827C47.9939 37.6807 47.5915 37.779 47.1231 37.779C46.4193 37.779 45.8759 37.5668 45.4929 37.1412C45.1643 36.7789 45 36.317 45 35.7581C45 35.282 45.1139 34.8667 45.3416 34.5134L45.8914 34.8861C45.7737 35.1435 45.7142 35.4023 45.7142 35.6636C45.7142 36.1527 45.8578 36.5253 46.1437 36.7815C46.3921 37.004 46.7208 37.1166 47.1296 37.1166C47.5591 37.1166 47.902 36.9846 48.1595 36.7181C48.3406 36.5369 48.4312 36.3649 48.4312 36.2006C48.4312 36.1579 48.4079 36.1372 48.3613 36.1372H48.0081C47.5747 36.1372 47.2124 35.9651 46.9213 35.6196C46.6638 35.3117 46.5357 34.9495 46.5357 34.5329C46.5357 34.027 46.6806 33.6272 46.9718 33.3322C47.2318 33.0618 47.5747 32.9272 48.0003 32.9272ZM46.92 39.043H46.2757V38.2849H46.92V39.043ZM47.9563 39.043H47.312V38.2849H47.9563V39.043Z" fill="#202021"/>
    <path d="M50.5595 33.5211L50.8623 32.9272C51.4988 32.9945 51.9594 33.2261 52.2454 33.622C52.464 33.9248 52.574 34.3155 52.574 34.7903C52.574 35.6869 52.1186 36.1359 51.209 36.1359H49.8945V35.511H51.209C51.4147 35.5148 51.5713 35.4463 51.6761 35.3027C51.7602 35.1888 51.8029 35.0284 51.8029 34.8227C51.8029 34.3724 51.6748 34.0412 51.4173 33.8303C51.2207 33.666 50.9347 33.5625 50.5595 33.5211Z" fill="#202021"/>
    <path d="M54.723 32.9272C55.203 32.9272 55.555 33.054 55.7788 33.3063C55.9806 33.5379 56.0815 33.8808 56.0815 34.3362V35.511H56.7634V36.1359H56.0815V36.2562C56.0725 36.7957 55.9237 37.1955 55.6326 37.4568C55.3842 37.6716 55.0452 37.779 54.6157 37.779C54.2275 37.779 53.8575 37.691 53.5043 37.5138L53.7449 36.9458C54.0063 37.0674 54.265 37.1295 54.5225 37.1295C55.0491 37.1295 55.3117 36.8578 55.3117 36.3144V36.1372H54.6351C54.2223 36.1372 53.9067 36.0155 53.688 35.771C53.4693 35.5304 53.3594 35.1836 53.3594 34.7282V34.3362C53.3581 33.3969 53.8135 32.9272 54.723 32.9272ZM54.723 33.5522C54.3271 33.5522 54.1292 33.7837 54.1292 34.2469V34.8097C54.1292 35.2768 54.3271 35.511 54.723 35.511H55.3169V34.2469C55.3169 33.7837 55.1189 33.5522 54.723 33.5522Z" fill="#202021"/>
    <path d="M59.0064 32.9272C59.4825 32.9272 59.8551 33.0683 60.1242 33.3503C60.3726 33.6155 60.5033 33.9817 60.5162 34.45C60.141 34.7243 59.8823 35.0775 59.7386 35.511H61.0596V36.1359H59.6131C59.3479 36.1359 59.1435 36.0958 58.9999 36.0155C58.8614 36.0958 58.6583 36.1359 58.3931 36.1359H56.6426V35.511H58.2663C58.1227 35.0775 57.8665 34.723 57.4952 34.45C57.5081 33.9235 57.6737 33.525 57.9946 33.2559C58.2611 33.0359 58.5975 32.9272 59.0064 32.9272ZM59.0064 33.5586C58.7993 33.5586 58.6273 33.6298 58.4888 33.7734C58.3582 33.9118 58.2818 34.0981 58.2611 34.3297C58.5264 34.5186 58.7618 34.8757 58.9688 35.3971C58.9818 35.4178 58.9947 35.4282 59.0064 35.4282C59.0193 35.4282 59.0296 35.4178 59.0374 35.3971C59.2147 34.8964 59.4527 34.5406 59.7516 34.3297C59.7257 34.0606 59.6313 33.8562 59.4669 33.7165C59.3414 33.6117 59.1875 33.5586 59.0064 33.5586Z" fill="#202021"/>
    <path d="M67.7435 36.1358H66.8974C66.6322 36.1358 66.4588 36.0686 66.3799 35.934C66.1561 36.1151 65.8533 36.2057 65.4703 36.2057C65.0615 36.2057 64.7523 36.0841 64.5414 35.8396C64.3266 36.0841 64.0019 36.2057 63.5685 36.2057C63.1221 36.2057 62.7909 36.0724 62.5761 35.8072C62.3575 36.0259 62.0534 36.1358 61.6666 36.1358H60.9395V35.5109H61.6666C61.8606 35.5109 62.0081 35.4411 62.109 35.3026C62.1931 35.1849 62.2358 35.0309 62.2358 34.842V32.9971H63.0069V34.9119C63.0069 35.1357 63.06 35.3052 63.1648 35.4242C63.2657 35.529 63.4003 35.5821 63.5685 35.5821C63.7625 35.5821 63.91 35.5122 64.0109 35.3738C64.0911 35.2599 64.1313 35.106 64.1313 34.9132V32.9984H64.9024V34.9197C64.9024 35.1422 64.9567 35.3117 65.0667 35.4255C65.1637 35.5303 65.2983 35.5834 65.4703 35.5834C65.6644 35.5834 65.8119 35.5161 65.9128 35.3815C65.993 35.2677 66.0331 35.1137 66.0331 34.921V32.9997H66.8043V34.8381C66.8043 35.0736 66.7706 35.2871 66.7033 35.476C66.746 35.5019 66.8081 35.5135 66.8935 35.5135H67.7461V36.1358H67.7435Z" fill="#202021"/>
    <path d="M69.3736 31.6257V34.7593C69.3736 35.2523 69.2403 35.6145 68.9751 35.8461C68.7512 36.0402 68.4407 36.1372 68.0397 36.1372H67.623V35.5123H68.0397C68.2285 35.5123 68.3747 35.4424 68.4757 35.304C68.5598 35.1863 68.6025 35.0323 68.6025 34.8434V31.627H69.3736V31.6257Z" fill="#202021"/>
    <path d="M71.1051 31.6257V36.1372H70.334V31.6257H71.1051Z" fill="#202021"/>
    <path d="M75.3191 36.1359H74.8391C74.7925 36.1359 74.7278 36.132 74.6437 36.123C74.6437 36.4387 74.623 36.6858 74.5803 36.8617C74.5376 37.039 74.4626 37.2033 74.3526 37.3547C74.2595 37.4854 74.1288 37.5889 73.9606 37.6639C73.7924 37.7402 73.6074 37.7778 73.4042 37.7778C73.0795 37.7778 72.7897 37.7131 72.5322 37.5824L72.7664 37.0079C72.9346 37.0882 73.108 37.1283 73.2852 37.1283C73.5 37.1283 73.6514 37.0584 73.7406 36.92C73.8286 36.7815 73.8739 36.5473 73.8739 36.2187V32.9907H74.645V35.4864C74.6916 35.5033 74.7485 35.5123 74.8158 35.5123H75.3217V36.1359H75.3191ZM74.6372 32.3839H73.8661V31.6257H74.6372V32.3839Z" fill="#202021"/>
    <path d="M76.8291 32.9958H77.3854C77.8409 32.9958 78.1811 33.1226 78.4088 33.3749C78.6146 33.6065 78.7181 33.939 78.7181 34.3737V34.7592C78.7181 35.2522 78.5835 35.6144 78.3131 35.846C78.0893 36.0401 77.7801 36.1371 77.3842 36.1371H75.2041V35.5122H77.3842C77.5782 35.5122 77.7257 35.4424 77.8266 35.3039C77.9069 35.1901 77.947 35.0361 77.947 34.8433V34.2935C77.947 34.0696 77.8939 33.9002 77.7891 33.7811C77.6882 33.6763 77.5536 33.6233 77.3842 33.6233H75.9247V33.3775C75.9247 33.2468 75.9454 33.1329 75.9881 33.0359C76.0295 32.9389 76.1123 32.8147 76.234 32.6633L77.0866 31.627H77.9457L76.8291 32.9958Z" fill="#202021"/>
    <path d="M81.6189 36.1359H81.1389C81.0923 36.1359 81.0276 36.1321 80.9435 36.123C80.9435 36.4387 80.9228 36.6858 80.8801 36.8618C80.8374 37.039 80.7624 37.2033 80.6524 37.3547C80.5593 37.4854 80.4286 37.5889 80.2604 37.6639C80.0922 37.7403 79.9072 37.7778 79.7041 37.7778C79.3793 37.7778 79.0895 37.7131 78.832 37.5824L79.0662 37.008C79.2344 37.0882 79.4078 37.1283 79.5837 37.1283C79.7985 37.1283 79.9499 37.0584 80.0391 36.92C80.1271 36.7816 80.1724 36.5474 80.1724 36.2188V32.9907H80.9435V35.4865C80.9901 35.5033 81.047 35.5123 81.1143 35.5123H81.6202V36.1359H81.6189Z" fill="#202021"/>
    <path d="M85.9336 36.1359H85.7563C85.4316 36.132 85.1728 36.0453 84.9787 35.8771C84.7717 36.2226 84.3978 36.3959 83.8544 36.3959C83.3071 36.3959 82.9319 36.2226 82.7301 35.8771C82.5322 36.0505 82.263 36.1359 81.9215 36.1359H81.5049V35.511H81.9215C82.1104 35.511 82.2566 35.4411 82.3575 35.3027C82.4416 35.1849 82.4843 35.031 82.4843 34.8421V34.3362C82.4843 33.3969 82.941 32.9272 83.8557 32.9272C84.7653 32.9272 85.2207 33.3969 85.2207 34.3362V34.8421C85.2207 35.0568 85.275 35.225 85.385 35.3479C85.482 35.4579 85.6101 35.5123 85.7705 35.5123H85.9349V36.1359H85.9336ZM84.4483 35.075V34.2469C84.4483 33.7837 84.2503 33.5522 83.8544 33.5522C83.4546 33.5522 83.2541 33.7837 83.2541 34.2469V35.075C83.2541 35.5381 83.4546 35.7697 83.8544 35.7697C84.2503 35.7697 84.4483 35.5381 84.4483 35.075Z" fill="#202021"/>
    <path d="M87.564 31.6257V34.7593C87.564 35.2523 87.4307 35.6145 87.1655 35.8461C86.9417 36.0402 86.6312 36.1372 86.2301 36.1372H85.8135V35.5123H86.2301C86.419 35.5123 86.5652 35.4424 86.6661 35.304C86.7502 35.1863 86.7929 35.0323 86.7929 34.8434V31.627H87.564V31.6257Z" fill="#202021"/>
    <path d="M89.2945 31.6257V36.1372H88.5234V31.6257H89.2945Z" fill="#202021"/>
    <path d="M3.61621 43.8263L4.23982 43.4266C4.43131 43.7422 4.77157 43.9001 5.26322 43.9001C5.79626 43.9001 6.06149 43.6944 6.06149 43.2829C6.06149 43.0746 5.98904 42.9233 5.84284 42.8275C5.77168 42.7822 5.7057 42.7486 5.6436 42.7279C5.58149 42.7072 5.39131 42.6567 5.07562 42.5778C4.58915 42.4575 4.25017 42.2841 4.05869 42.0603C3.88791 41.8649 3.80252 41.654 3.80252 41.3177C3.80252 40.8816 3.94872 40.5504 4.23982 40.3253C4.49341 40.1338 4.83626 40.0381 5.26969 40.0381C5.94764 40.0381 6.42117 40.2606 6.69158 40.7057L6.08608 41.099C5.89459 40.8286 5.61643 40.694 5.25028 40.694C5.03034 40.694 4.85955 40.7523 4.73923 40.8687C4.63961 40.9683 4.58915 41.1016 4.58915 41.2685C4.58915 41.4729 4.6616 41.5699 4.8078 41.6747C4.94106 41.7705 5.16489 41.8572 5.48187 41.9361C5.77298 42.0073 5.97222 42.0616 6.0809 42.1017C6.18958 42.1418 6.29955 42.1987 6.41211 42.2738C6.69934 42.4691 6.84295 42.7978 6.84295 43.2596C6.84295 44.133 6.31249 44.5703 5.25157 44.5703C4.45589 44.569 3.9112 44.3219 3.61621 43.8263Z" fill="#202021"/>
    <path d="M9.32445 42.5662V42.4226C9.32445 42.2233 9.28046 42.0784 9.19378 41.9891C9.1058 41.8999 8.96866 41.8546 8.78235 41.8546C8.521 41.8546 8.30364 41.9581 8.13415 42.1664L7.59723 41.786C7.88057 41.416 8.29976 41.231 8.85739 41.231C9.43572 41.231 9.80963 41.4121 9.98041 41.7744C10.0593 41.9361 10.0994 42.1987 10.0994 42.561V44.5703H9.49394L9.44477 44.3141C9.34127 44.4059 9.22483 44.4706 9.09545 44.5107C8.96607 44.5509 8.79141 44.5703 8.57146 44.5703C8.15097 44.5703 7.85987 44.4823 7.69814 44.3076C7.55194 44.1575 7.47949 43.9143 7.47949 43.5779C7.47949 43.1704 7.57911 42.8961 7.77836 42.7551C7.95302 42.6296 8.25448 42.5675 8.68273 42.5675H9.32445V42.5662ZM9.32445 43.0901H8.77588C8.57146 43.0901 8.42785 43.1251 8.34246 43.1962C8.25707 43.2674 8.21437 43.3838 8.21437 43.5456C8.21437 43.7073 8.25448 43.8199 8.33599 43.882C8.4175 43.9441 8.56111 43.9751 8.76941 43.9751C9.01006 43.9751 9.17308 43.9169 9.25588 43.8004C9.30116 43.7383 9.32445 43.6128 9.32445 43.4265V43.0901Z" fill="#202021"/>
    <path d="M10.9775 41.231H11.7512V43.0398C11.7512 43.3723 11.7965 43.6039 11.8884 43.7319C11.9634 43.8484 12.0863 43.9066 12.2571 43.9066C12.4654 43.9066 12.6103 43.8238 12.6944 43.6569C12.7604 43.5107 12.794 43.2739 12.794 42.9453V41.2297H13.5742V44.5677H13.0308L12.9441 44.199C12.8561 44.3284 12.7475 44.4215 12.6168 44.4798C12.4861 44.538 12.3166 44.5677 12.1083 44.5677C11.5675 44.5677 11.2221 44.362 11.0733 43.9506C11.0112 43.7798 10.9801 43.5055 10.9801 43.1277V41.231H10.9775Z" fill="#202021"/>
    <path d="M16.5112 44.5689L16.4607 44.2752C16.453 44.283 16.44 44.2933 16.4232 44.3063C16.4232 44.3102 16.4206 44.3128 16.4167 44.3128C16.3132 44.4046 16.1994 44.4693 16.0765 44.5094C15.9536 44.5495 15.7944 44.5689 15.5991 44.5689C15.1501 44.5689 14.8318 44.4395 14.6442 44.1821C14.4773 43.9531 14.3945 43.6038 14.3945 43.1341V42.6657C14.3945 42.134 14.5032 41.7549 14.7193 41.5298C14.9108 41.3305 15.1993 41.2296 15.5861 41.2296C15.8695 41.2296 16.1036 41.2943 16.2912 41.4224C16.2951 41.4263 16.3081 41.4353 16.3288 41.447V40.0432H17.1025V44.5663H16.5112V44.5689ZM16.3301 42.5842C16.3262 42.31 16.2718 42.1159 16.1683 42.0046C16.0726 41.905 15.9316 41.8545 15.744 41.8545C15.5447 41.8545 15.3972 41.9244 15.3041 42.0628C15.2109 42.2026 15.1643 42.4212 15.1643 42.7214V43.0772C15.1643 43.398 15.2187 43.6257 15.3261 43.7629C15.4179 43.8832 15.5564 43.944 15.744 43.944C16.1347 43.944 16.3301 43.7008 16.3301 43.2143V42.5842Z" fill="#202021"/>
    <path d="M18.041 40.8003V40.0447H18.8147V40.8003H18.041ZM18.041 44.5691V41.2311H18.8147V44.5691H18.041Z" fill="#202021"/>
    <path d="M21.085 44.5664V40.1118H23.8304V40.7794H21.8962V41.9839H23.5367V42.6515H21.8962V43.8988H23.8485V44.5664H21.085Z" fill="#202021"/>
    <path d="M24.6162 44.569V41.231H25.1971L25.2657 41.5803C25.3692 41.4561 25.4869 41.3655 25.6176 41.3125C25.7483 41.2581 25.9165 41.231 26.1196 41.231C26.6734 41.231 27.0266 41.4367 27.1805 41.8481C27.2426 42.0189 27.2737 42.2906 27.2737 42.6658V44.569H26.5V42.7538C26.5 42.4251 26.4521 42.1961 26.3564 42.068C26.2736 41.9516 26.1416 41.8934 25.9631 41.8934C25.7379 41.8934 25.584 41.9762 25.5012 42.1431C25.4261 42.2893 25.3886 42.5235 25.3886 42.8482V44.5703H24.6162V44.569Z" fill="#202021"/>
    <path d="M28.8515 43.0901V43.1832C28.8515 43.7033 29.0805 43.9634 29.5372 43.9634C29.695 43.9634 29.8244 43.9375 29.924 43.8858C30.0236 43.834 30.1155 43.7473 30.1983 43.627L30.7727 43.9634C30.6356 44.1795 30.4661 44.3347 30.2643 44.4279C30.0624 44.521 29.7933 44.5689 29.4569 44.5689C28.9407 44.5689 28.5746 44.4292 28.3585 44.151C28.167 43.9052 28.0713 43.5338 28.0713 43.0344V42.8041C28.0713 42.2142 28.1942 41.795 28.44 41.5505C28.6561 41.3383 28.9912 41.2322 29.444 41.2322C29.9602 41.2322 30.3238 41.3732 30.536 41.6565C30.7236 41.9024 30.8167 42.284 30.8167 42.8041V43.0914H28.8515V43.0901ZM28.8463 42.5531H30.0819V42.4846C30.0819 42.2517 30.021 42.077 29.9007 41.9606C29.7972 41.861 29.651 41.8105 29.4634 41.8105C29.2512 41.8105 29.0934 41.8765 28.9899 42.0098C28.8941 42.1262 28.8463 42.284 28.8463 42.4833V42.5531Z" fill="#202021"/>
    <path d="M31.5908 44.569V41.231H32.1834L32.2765 41.5311C32.3762 41.4224 32.4758 41.3461 32.5754 41.3008C32.675 41.2555 32.7953 41.2323 32.9377 41.2323C33.1576 41.2323 33.3866 41.2982 33.6234 41.4315L33.2922 42.068C33.1382 41.9555 32.9946 41.8999 32.8613 41.8999C32.6737 41.8999 32.5405 41.993 32.4615 42.1806C32.3943 42.3475 32.3619 42.605 32.3619 42.9543V44.5703H31.5908V44.569Z" fill="#202021"/>
    <path d="M35.9394 44.3503C35.7479 44.4965 35.4943 44.569 35.1787 44.569C34.7426 44.569 34.4295 44.4383 34.2432 44.1756C34.0815 43.9466 34 43.5999 34 43.1341V42.6658C34 42.1289 34.1087 41.7485 34.3247 41.5247C34.5162 41.3293 34.8086 41.231 35.2045 41.231C35.5629 41.231 35.8411 41.3241 36.0403 41.5117L36.1089 41.231H36.7079V44.4189C36.7079 44.9804 36.5747 45.3854 36.3081 45.6351C36.0753 45.855 35.7324 45.9663 35.2783 45.9663C34.7038 45.9663 34.3015 45.7644 34.0686 45.3608L34.643 45.0296C34.7219 45.1538 34.8073 45.2417 34.8992 45.2922C34.991 45.3414 35.1075 45.3672 35.2485 45.3672C35.4982 45.3672 35.6768 45.2896 35.7854 45.1369C35.8812 44.9998 35.9316 44.7902 35.9355 44.5069L35.9394 44.3503ZM35.9329 42.5843C35.9291 42.31 35.8747 42.1159 35.7712 42.0047C35.6755 41.905 35.5344 41.8546 35.3468 41.8546C35.1476 41.8546 35.0001 41.9244 34.907 42.0629C34.8138 42.2026 34.7672 42.4213 34.7672 42.7214V43.0772C34.7672 43.3981 34.8216 43.6258 34.9289 43.7629C35.0208 43.8832 35.1592 43.9441 35.3468 43.9441C35.7376 43.9441 35.9329 43.7008 35.9329 43.2144V42.5843Z" fill="#202021"/>
    <path d="M38.4349 44.4435L37.3105 41.231H38.0972L38.8411 43.6077L39.5307 41.231H40.3173L39.1348 44.7811C38.9394 45.3672 38.7143 45.7127 38.4607 45.8175C38.2783 45.8964 37.9781 45.9365 37.5628 45.9365V45.3064C37.8332 45.3064 38.0118 45.2663 38.0998 45.1874C38.1826 45.1162 38.2641 44.961 38.343 44.719L38.4349 44.4435Z" fill="#202021"/>
    <path d="M42.2021 44.569V40.0459H44.9476V40.7135H43.0134V41.9866H44.6539V42.6542H43.0134V43.9014H44.9657V44.569H42.2021Z" fill="#202021"/>
    <path d="M45.8648 41.8482H45.4961V41.231H45.8648V40.9503C45.8648 40.6009 45.9463 40.3551 46.1081 40.2141C46.1831 40.152 46.2788 40.108 46.3953 40.0834C46.5117 40.0588 46.6864 40.0459 46.9193 40.0459H47.2375V40.6255H47.081C46.8895 40.6255 46.7679 40.6475 46.7161 40.6915C46.6644 40.7355 46.6385 40.8429 46.6385 41.0124V41.231H47.1444V41.8482H46.6385V44.569H45.8648V41.8482ZM47.812 41.8482H47.4433V41.231H47.812V40.9503C47.812 40.7627 47.8301 40.6139 47.8676 40.5013C47.9052 40.3888 47.9673 40.293 48.0552 40.2141C48.1303 40.152 48.226 40.108 48.3425 40.0834C48.4589 40.0588 48.6336 40.0459 48.8664 40.0459H49.2287V40.6255H49.0295C48.838 40.6255 48.7164 40.6475 48.6646 40.6915C48.6129 40.7355 48.587 40.8429 48.587 41.0124V41.231H49.2611V41.8482H48.587V44.569H47.8133V41.8482H47.812ZM49.8394 40.8377V40.0459H50.6131V40.8377H49.8394ZM49.8394 44.569V41.231H50.6131V44.569H49.8394Z" fill="#202021"/>
    <path d="M53.4148 43.6336L53.9892 43.9584C53.7395 44.3659 53.3359 44.5704 52.7795 44.5704C52.297 44.5704 51.9476 44.4242 51.7316 44.133C51.5401 43.8795 51.4443 43.5069 51.4443 43.0165V42.8173C51.4443 42.2428 51.5647 41.8275 51.8066 41.57C52.0227 41.3449 52.3384 41.2336 52.755 41.2336C53.3126 41.2336 53.7059 41.4394 53.9336 41.8508L53.3592 42.1755C53.2764 42.0552 53.1936 41.9711 53.1133 41.9258C53.0318 41.8805 52.9309 41.8573 52.8106 41.8573C52.6062 41.8573 52.4574 41.9297 52.3616 42.0759C52.2659 42.2221 52.218 42.4459 52.218 42.75V43.0928C52.218 43.6621 52.4212 43.948 52.83 43.948C53.0732 43.9454 53.2686 43.8406 53.4148 43.6336Z" fill="#202021"/>
    <path d="M54.5381 40.8377V40.0459H55.3118V40.8377H54.5381ZM54.5381 44.569V41.231H55.3118V44.569H54.5381Z" fill="#202021"/>
    <path d="M56.9208 43.0901V43.1832C56.9208 43.7033 57.1498 43.9634 57.6065 43.9634C57.7643 43.9634 57.8937 43.9375 57.9933 43.8858C58.093 43.834 58.1848 43.7473 58.2676 43.627L58.8421 43.9634C58.7049 44.1795 58.5354 44.3347 58.3336 44.4279C58.1318 44.521 57.8627 44.5689 57.5263 44.5689C57.0101 44.5689 56.6439 44.4292 56.4278 44.151C56.2364 43.9052 56.1406 43.5338 56.1406 43.0344V42.8041C56.1406 42.2142 56.2635 41.795 56.5094 41.5505C56.7254 41.3383 57.0605 41.2322 57.5133 41.2322C58.0296 41.2322 58.3931 41.3732 58.6053 41.6565C58.7929 41.9024 58.8861 42.284 58.8861 42.8041V43.0914H56.9208V43.0901ZM56.9143 42.5531H58.1499V42.4846C58.1499 42.2517 58.0891 42.077 57.9688 41.9606C57.8653 41.861 57.7191 41.8105 57.5315 41.8105C57.3193 41.8105 57.1614 41.8765 57.0579 42.0098C56.9622 42.1262 56.9143 42.284 56.9143 42.4833V42.5531Z" fill="#202021"/>
    <path d="M59.6602 44.569V41.231H60.2398L60.3084 41.5803C60.4119 41.4561 60.5296 41.3655 60.6603 41.3125C60.7909 41.2581 60.9591 41.231 61.1623 41.231C61.716 41.231 62.0692 41.4367 62.2232 41.8481C62.2853 42.0189 62.3163 42.2906 62.3163 42.6658V44.569H61.5426V42.7538C61.5426 42.4251 61.4948 42.1961 61.399 42.068C61.3162 41.9516 61.1843 41.8934 61.0057 41.8934C60.7806 41.8934 60.6266 41.9762 60.5438 42.1431C60.4688 42.2893 60.4313 42.5235 60.4313 42.8482V44.5703H59.6602V44.569Z" fill="#202021"/>
    <path d="M65.0876 43.6336L65.6621 43.9584C65.4124 44.3659 65.0087 44.5704 64.4524 44.5704C63.9698 44.5704 63.6205 44.4242 63.4044 44.133C63.2129 43.8795 63.1172 43.5069 63.1172 43.0165V42.8173C63.1172 42.2428 63.2375 41.8275 63.4795 41.57C63.6955 41.3449 64.0112 41.2336 64.4278 41.2336C64.9854 41.2336 65.3787 41.4394 65.6065 41.8508L65.032 42.1755C64.9492 42.0552 64.8664 41.9711 64.7862 41.9258C64.7047 41.8805 64.6038 41.8573 64.4834 41.8573C64.279 41.8573 64.1302 41.9297 64.0345 42.0759C63.9388 42.2221 63.8909 42.4459 63.8909 42.75V43.0928C63.8909 43.6621 64.094 43.948 64.5028 43.948C64.7461 43.9454 64.9427 43.8406 65.0876 43.6336Z" fill="#202021"/>
    <path d="M67.0709 44.4435L65.9492 41.231H66.7358L67.4772 43.6077L68.1655 41.231H68.9521L67.7709 44.7811C67.5755 45.3672 67.3504 45.7127 67.0968 45.8175C66.9144 45.8964 66.6142 45.9365 66.1989 45.9365V45.3064C66.4693 45.3064 66.6479 45.2663 66.7358 45.1874C66.8187 45.1162 66.9002 44.961 66.9791 44.719L67.0709 44.4435Z" fill="#202021"/>
    <path d="M73.1036 43.252L73.8643 43.3387C73.8191 44.1577 73.2989 44.5678 72.304 44.5678C71.705 44.5678 71.2742 44.3854 71.0128 44.0192C70.9093 43.8782 70.8356 43.71 70.7916 43.5172C70.7476 43.3245 70.7256 43.0696 70.7256 42.7526V41.8599C70.7256 41.5144 70.7515 41.2414 70.8032 41.0396C70.855 40.8378 70.9455 40.6618 71.0749 40.513C71.3453 40.2012 71.7554 40.0447 72.304 40.0447C73.2601 40.0447 73.7595 40.4652 73.8009 41.3048L73.0518 41.3605C72.9975 40.9283 72.7517 40.711 72.3157 40.711C72.0116 40.711 71.8033 40.8132 71.6921 41.0163C71.5924 41.1987 71.542 41.4989 71.542 41.9142V42.6944C71.542 43.1731 71.608 43.4991 71.7412 43.6738C71.8577 43.8239 72.053 43.8989 72.3273 43.8989C72.7879 43.9015 73.0454 43.6854 73.1036 43.252Z" fill="#202021"/>
    <path d="M75.3759 43.0901V43.1832C75.3759 43.7033 75.6049 43.9634 76.0616 43.9634C76.2194 43.9634 76.3488 43.9375 76.4484 43.8858C76.548 43.834 76.6399 43.7473 76.7227 43.627L77.2972 43.9634C77.16 44.1795 76.9905 44.3347 76.7887 44.4279C76.5869 44.521 76.3178 44.5689 75.9814 44.5689C75.4651 44.5689 75.099 44.4292 74.8829 44.151C74.6914 43.9052 74.5957 43.5338 74.5957 43.0344V42.8041C74.5957 42.2142 74.7186 41.795 74.9644 41.5505C75.1805 41.3383 75.5156 41.2322 75.9684 41.2322C76.4846 41.2322 76.8482 41.3732 77.0604 41.6565C77.248 41.9024 77.3412 42.284 77.3412 42.8041V43.0914H75.3759V43.0901ZM75.3694 42.5531H76.605V42.4846C76.605 42.2517 76.5442 42.077 76.4238 41.9606C76.3203 41.861 76.1741 41.8105 75.9865 41.8105C75.7744 41.8105 75.6165 41.8765 75.513 42.0098C75.4173 42.1262 75.3694 42.284 75.3694 42.4833V42.5531Z" fill="#202021"/>
    <path d="M78.1143 44.569V41.2995H78.6952L78.7637 41.5803C78.8673 41.4561 78.985 41.3655 79.1157 41.3125C79.2463 41.2581 79.4145 41.231 79.6177 41.231C80.1714 41.231 80.5246 41.4367 80.6786 41.8481C80.7407 42.0189 80.7717 42.2906 80.7717 42.6658V44.569H79.998V42.7538C79.998 42.4251 79.9502 42.1961 79.8544 42.068C79.7716 41.9516 79.6396 41.8934 79.4611 41.8934C79.236 41.8934 79.082 41.9762 78.9992 42.1431C78.9242 42.2893 78.8867 42.5235 78.8867 42.8482V44.5703H78.1143V44.569Z" fill="#202021"/>
    <path d="M81.7578 41.9167H81.3955V41.2995H81.7578L81.8018 40.051H82.5315V41.2995H83.168V41.9167H82.5315V43.239C82.5315 43.5016 82.5755 43.7422 82.6621 43.825C82.7372 43.9001 82.8769 43.9376 83.08 43.9376H83.1667V44.5677H83.0542C82.6841 44.5677 82.4137 44.534 82.2429 44.4681C82.0605 44.3969 81.9324 44.2714 81.8626 44.0903C81.7914 43.9091 81.7565 43.5546 81.7565 43.1639V41.9167H81.7578Z" fill="#202021"/>
    <path d="M84.5214 43.0901V43.1832C84.5214 43.7033 84.7504 43.9634 85.2071 43.9634C85.3649 43.9634 85.4943 43.9375 85.5939 43.8858C85.6936 43.834 85.7854 43.7473 85.8682 43.627L86.4427 43.9634C86.3055 44.1795 86.136 44.3347 85.9342 44.4279C85.7324 44.521 85.4633 44.5689 85.1269 44.5689C84.6106 44.5689 84.2445 44.4292 84.0284 44.151C83.8369 43.9052 83.7412 43.5338 83.7412 43.0344V42.8041C83.7412 42.2142 83.8641 41.795 84.1099 41.5505C84.326 41.3383 84.6611 41.2322 85.1139 41.2322C85.6302 41.2322 85.9937 41.3732 86.2059 41.6565C86.3935 41.9024 86.4867 42.284 86.4867 42.8041V43.0914H84.5214V43.0901ZM84.5149 42.5531H85.7505V42.4846C85.7505 42.2517 85.6897 42.077 85.5694 41.9606C85.4658 41.861 85.3196 41.8105 85.132 41.8105C84.9199 41.8105 84.762 41.8765 84.6585 42.0098C84.5628 42.1262 84.5149 42.284 84.5149 42.4833V42.5531Z" fill="#202021"/>
    <path d="M87.2607 44.569V41.2995H87.8533L87.9465 41.5298C88.0461 41.4211 88.1457 41.3448 88.2453 41.2995C88.3449 41.2542 88.4653 41.231 88.6076 41.231C88.8275 41.231 89.0565 41.2969 89.2933 41.4302L88.9621 42.0668C88.8081 41.9542 88.6645 41.8986 88.5313 41.8986C88.3437 41.8986 88.2104 41.9917 88.1315 42.1793C88.0642 42.3462 88.0318 42.6037 88.0318 42.953V44.569H87.2607Z" fill="#202021"/>
    <defs>
        <radialGradient id="paint0_radial_602_1455" cx="0" cy="0" r="1" gradientUnits="userSpaceOnUse" gradientTransform="translate(2.80437 6.67225) scale(22.9723 22.9723)">
            <stop stop-color="#DCDE22"/>
            <stop offset="0.2037" stop-color="#B4CC36"/>
            <stop offset="0.3847" stop-color="#80B241"/>
            <stop offset="0.6434" stop-color="#2B9046"/>
            <stop offset="0.8052" stop-color="#297D59"/>
            <stop offset="1" stop-color="#2D6D5A"/>
        </radialGradient>
    </defs>
</svg>